<?xml version="1.0" standalone="no"?>
<!DOCTYPE svg PUBLIC "-//W3C//DTD SVG 20010904//EN"
 "http://www.w3.org/TR/2001/REC-SVG-20010904/DTD/svg10.dtd">
<svg version="1.0" xmlns="http://www.w3.org/2000/svg"
 width="1081.000000pt" height="1081.000000pt" viewBox="0 0 1081.000000 1081.000000"
 preserveAspectRatio="xMidYMid meet">
<metadata>
Created by potrace 1.14, written by Peter Selinger 2001-2017
</metadata>
<g transform="translate(0.000000,1081.000000) scale(0.100000,-0.100000)"
fill="#000000" stroke="none">
<path d="M4908 9615 c-2 -2 -42 -7 -88 -10 -47 -3 -96 -8 -110 -10 -14 -2 -45
-7 -70 -10 -25 -3 -70 -10 -100 -15 -30 -5 -73 -12 -94 -16 -77 -12 -313 -73
-434 -113 -792 -262 -1483 -814 -1903 -1522 -58 -97 -71 -123 -135 -249 -153
-305 -284 -690 -329 -965 -2 -11 -10 -58 -19 -105 -8 -47 -18 -112 -21 -145
-4 -33 -8 -71 -11 -85 -25 -151 -25 -719 1 -890 2 -14 6 -50 10 -80 5 -47 21
-143 40 -255 3 -16 8 -38 11 -47 3 -10 7 -30 10 -45 23 -138 126 -457 209
-652 198 -461 460 -845 805 -1177 132 -127 367 -321 431 -354 13 -7 26 -16 29
-19 7 -9 199 -131 205 -131 3 0 24 -12 48 -27 125 -79 453 -223 657 -288 213
-68 538 -133 755 -151 273 -22 630 -18 850 11 17 2 53 7 80 10 297 35 700 146
975 267 744 329 1392 914 1796 1623 132 231 275 584 330 815 2 8 10 44 19 79
24 97 54 255 60 316 2 17 6 46 9 65 5 35 9 73 22 220 9 95 9 416 0 537 -12
173 -38 365 -68 498 -11 50 -22 101 -24 115 -13 71 -91 318 -139 440 -216 555
-553 1022 -1060 1470 -334 295 -777 550 -1210 698 -100 34 -306 93 -373 107
-145 30 -220 43 -280 50 -20 3 -48 7 -62 10 -14 2 -50 7 -80 10 -30 4 -75 9
-100 12 -52 6 -636 13 -642 8z m607 -518 c11 -2 50 -8 87 -11 37 -4 77 -9 90
-11 13 -2 52 -9 88 -15 67 -10 88 -14 130 -24 14 -3 36 -8 50 -10 74 -12 294
-78 420 -126 412 -157 791 -405 1125 -736 139 -138 206 -215 368 -424 18 -24
107 -159 145 -220 145 -234 298 -615 348 -865 19 -95 44 -240 49 -285 4 -30 8
-66 10 -80 8 -54 17 -241 17 -360 0 -175 -7 -274 -37 -520 -18 -143 -90 -416
-158 -600 -141 -378 -387 -754 -704 -1075 -388 -393 -789 -649 -1283 -819 -79
-27 -320 -90 -380 -100 -19 -3 -58 -10 -87 -15 -170 -33 -347 -46 -618 -46
-306 0 -402 9 -690 60 -222 40 -533 151 -768 274 -298 156 -641 431 -853 683
-33 39 -64 76 -70 82 -41 44 -192 255 -252 355 -177 291 -291 570 -367 896
-13 55 -28 129 -35 165 -6 36 -13 76 -16 90 -2 14 -6 48 -9 75 -3 28 -7 59 -9
70 -25 131 -26 713 -1 844 2 11 6 44 9 73 4 29 8 64 11 78 3 13 7 42 11 65 3
22 14 81 25 130 99 452 286 859 558 1215 36 47 68 87 71 90 3 3 29 34 59 70
69 81 255 268 341 340 36 30 67 57 70 60 37 40 310 222 430 287 271 147 640
269 945 313 131 18 137 19 210 25 39 4 71 8 73 10 5 5 575 -2 597 -8z"/>
<path d="M6193 8789 c-315 -68 -562 -322 -669 -689 -68 -230 -82 -396 -59
-660 14 -166 21 -641 11 -860 -8 -195 -22 -306 -50 -415 -79 -301 -148 -461
-239 -562 -82 -90 -207 -139 -287 -113 -70 23 -101 77 -103 180 -2 91 15 160
78 329 24 64 51 145 60 181 64 247 81 370 79 585 -2 192 -25 298 -96 444 -41
83 -65 117 -122 175 -39 39 -103 90 -142 112 -69 41 -216 98 -236 92 -5 -2 -1
-15 10 -28 57 -73 83 -141 100 -269 41 -295 -114 -717 -441 -1204 -70 -104
-213 -383 -286 -557 -29 -69 -56 -134 -61 -145 -87 -196 -213 -640 -245 -862
-3 -23 -8 -57 -11 -75 -17 -123 -22 -338 -10 -478 9 -113 13 -138 42 -255 75
-300 247 -544 470 -666 107 -59 294 -79 422 -46 319 84 640 351 870 723 73
118 165 302 213 424 99 254 174 532 209 775 6 39 12 79 14 90 2 11 7 49 11 85
4 36 8 75 10 87 4 25 18 252 18 296 1 53 13 26 36 -75 36 -163 47 -220 57
-297 2 -19 6 -46 9 -60 8 -48 20 -173 30 -306 6 -80 7 -366 1 -440 -6 -67 -16
-172 -22 -215 -27 -191 -74 -371 -143 -550 l-21 -55 25 30 c82 96 239 364 300
512 16 37 32 73 36 78 10 13 116 330 123 365 2 14 9 45 15 70 15 69 21 97 37
195 8 50 16 95 18 100 3 12 31 -111 46 -205 60 -377 -1 -825 -147 -1085 -12
-22 -29 -53 -36 -70 -47 -99 -207 -287 -332 -388 -46 -37 -48 -40 -20 -33 131
30 335 107 475 179 83 43 286 169 300 186 3 3 37 32 77 64 265 214 466 532
552 874 58 228 71 525 37 803 -11 91 -19 139 -26 170 -5 19 -12 51 -15 70 -14
79 -30 146 -68 275 -7 22 -11 44 -9 48 1 5 -2 6 -8 2 -6 -3 -8 -10 -5 -15 7
-11 7 -236 0 -295 -14 -130 -18 -158 -30 -220 -3 -14 -7 -37 -10 -52 -10 -52
-57 -188 -87 -253 -35 -75 -108 -187 -142 -219 l-24 -22 24 68 c23 67 58 199
68 258 3 17 8 39 10 51 2 12 7 43 10 70 4 27 9 65 11 84 8 63 18 243 18 325 0
88 -12 310 -18 328 -2 7 -6 41 -10 77 -11 116 -57 353 -91 470 -69 234 -141
442 -189 545 -7 17 -19 43 -25 60 -6 16 -33 65 -60 110 -147 244 -299 607
-345 824 -23 110 -25 123 -32 196 -29 292 35 497 205 660 l37 36 -60 -2 c-33
-1 -97 -10 -142 -20z"/>
</g>
</svg>
